<svg xmlns="http://www.w3.org/2000/svg" xmlns:xlink="http://www.w3.org/1999/xlink" width="500" zoomAndPan="magnify" viewBox="0 0 375 187.499995" height="250" preserveAspectRatio="xMidYMid meet" version="1.0"><defs><g/><clipPath id="43a83dacc4"><path d="M 210 113 L 276 113 L 276 141 L 210 141 Z M 210 113 " clip-rule="nonzero"/></clipPath><clipPath id="a8644e024a"><path d="M 241.953125 85.847656 L 284.335938 126.273438 L 243.910156 168.65625 L 201.527344 128.230469 Z M 241.953125 85.847656 " clip-rule="nonzero"/></clipPath><clipPath id="a418eae43d"><path d="M 241.953125 85.847656 L 284.335938 126.273438 L 243.910156 168.65625 L 201.527344 128.230469 Z M 241.953125 85.847656 " clip-rule="nonzero"/></clipPath><clipPath id="3b2f7000dd"><path d="M 171 37.8125 L 205 37.8125 L 205 96.902344 L 171 96.902344 Z M 171 37.8125 " clip-rule="nonzero"/></clipPath><clipPath id="63abd86b9b"><path d="M 132.378906 33 L 157.808594 33 L 157.808594 101 L 132.378906 101 Z M 132.378906 33 " clip-rule="nonzero"/></clipPath><clipPath id="c22e82e4e8"><path d="M 217.105469 33 L 242.347656 33 L 242.347656 101 L 217.105469 101 Z M 217.105469 33 " clip-rule="nonzero"/></clipPath></defs><g fill="#5e17eb" fill-opacity="1"><g transform="translate(74.020683, 142.413059)"><g><path d="M 5.390625 -35.734375 C 9.910156 -36.140625 13.332031 -36.34375 15.65625 -36.34375 C 17.988281 -36.34375 19.914062 -36.019531 21.4375 -35.375 C 22.957031 -34.726562 24.171875 -33.863281 25.078125 -32.78125 C 25.984375 -31.707031 26.726562 -30.363281 27.3125 -28.75 C 28.238281 -26.082031 28.703125 -22.59375 28.703125 -18.28125 C 28.703125 -5.644531 24.300781 0.671875 15.5 0.671875 L 5.390625 0 Z M 14.9375 -3.125 C 18.050781 -3.125 20.085938 -3.601562 21.046875 -4.5625 C 22.929688 -6.445312 23.875 -11.023438 23.875 -18.296875 C 23.875 -25.578125 22.96875 -30.003906 21.15625 -31.578125 C 20.363281 -32.265625 18.703125 -32.609375 16.171875 -32.609375 L 9.65625 -32.25 L 9.703125 -3.640625 C 11.890625 -3.296875 13.632812 -3.125 14.9375 -3.125 Z M 14.9375 -3.125 "/></g></g></g><g fill="#5e17eb" fill-opacity="1"><g transform="translate(104.463827, 142.413059)"><g><path d="M 15.5 0.671875 C 7.5625 0.671875 3.59375 -4.53125 3.59375 -14.9375 C 3.59375 -25.34375 7.53125 -30.546875 15.40625 -30.546875 C 18.894531 -30.546875 21.507812 -29.457031 23.25 -27.28125 C 25 -25.113281 25.875 -21.515625 25.875 -16.484375 L 25.875 -13.296875 L 8.109375 -13.296875 C 8.109375 -8.671875 8.84375 -5.675781 10.3125 -4.3125 C 11.238281 -3.488281 12.507812 -3.078125 14.125 -3.078125 C 17 -3.078125 19.820312 -3.554688 22.59375 -4.515625 L 23.984375 -5.03125 L 25.0625 -1.546875 C 22.1875 -0.0664062 19 0.671875 15.5 0.671875 Z M 20.328125 -25.3125 C 19.648438 -26.34375 17.972656 -26.859375 15.296875 -26.859375 C 12.628906 -26.859375 10.765625 -26.15625 9.703125 -24.75 C 8.640625 -23.34375 8.109375 -20.65625 8.109375 -16.6875 L 21.515625 -16.9375 C 21.515625 -21.21875 21.117188 -24.007812 20.328125 -25.3125 Z M 20.328125 -25.3125 "/></g></g></g><g fill="#5e17eb" fill-opacity="1"><g transform="translate(131.723987, 142.413059)"><g><path d="M 23.5625 -29.875 L 14.6875 0 L 9.390625 0 L 0.71875 -29.875 L 5.34375 -29.875 L 11.90625 -3.484375 L 12.21875 -3.484375 L 18.953125 -29.875 Z M 23.5625 -29.875 "/></g></g></g><g fill="#5e17eb" fill-opacity="1"><g transform="translate(154.107014, 142.413059)"><g><path d="M 15.65625 -26.796875 C 13.050781 -26.796875 11.304688 -26.351562 10.421875 -25.46875 C 9.734375 -24.71875 9.164062 -23.375 8.71875 -21.4375 C 8.28125 -19.5 8.0625 -17.265625 8.0625 -14.734375 C 8.0625 -8.984375 9.15625 -5.351562 11.34375 -3.84375 C 12.09375 -3.300781 13.09375 -3.03125 14.34375 -3.03125 C 15.59375 -3.03125 16.945312 -3.222656 18.40625 -3.609375 C 19.863281 -4.003906 21.445312 -4.597656 23.15625 -5.390625 L 24.484375 -2.046875 C 24.210938 -1.847656 23.828125 -1.59375 23.328125 -1.28125 C 22.835938 -0.976562 21.796875 -0.578125 20.203125 -0.078125 C 18.609375 0.421875 17.007812 0.671875 15.40625 0.671875 C 11.707031 0.671875 8.8125 -0.601562 6.71875 -3.15625 C 4.632812 -5.707031 3.59375 -9.742188 3.59375 -15.265625 C 3.59375 -20.796875 4.738281 -24.722656 7.03125 -27.046875 C 9.320312 -29.378906 12.472656 -30.546875 16.484375 -30.546875 C 19.085938 -30.546875 21.515625 -30.273438 23.765625 -29.734375 L 23.265625 -26.140625 C 19.566406 -26.578125 17.03125 -26.796875 15.65625 -26.796875 Z M 15.65625 -26.796875 "/></g></g></g><g fill="#5e17eb" fill-opacity="1"><g transform="translate(178.748929, 142.413059)"><g><path d="M 8.625 0 L 4.359375 0 L 4.359375 -38.65625 L 8.625 -38.65625 L 8.625 -28.03125 C 12.488281 -29.707031 15.5 -30.546875 17.65625 -30.546875 C 20.570312 -30.546875 22.601562 -29.679688 23.75 -27.953125 C 24.894531 -26.222656 25.46875 -23.53125 25.46875 -19.875 L 25.46875 0 L 21.203125 0 L 21.203125 -18.375 C 21.203125 -22.113281 20.859375 -24.476562 20.171875 -25.46875 C 19.660156 -26.1875 18.753906 -26.546875 17.453125 -26.546875 C 14.992188 -26.546875 12.476562 -26.015625 9.90625 -24.953125 L 8.625 -24.390625 Z M 8.625 0 "/></g></g></g><g fill="#5e17eb" fill-opacity="1"><g transform="translate(206.782716, 142.413059)"><g/></g></g><g fill="#5e17eb" fill-opacity="1"><g transform="translate(216.382515, 142.413059)"><g/></g></g><g fill="#5e17eb" fill-opacity="1"><g transform="translate(225.982313, 142.413059)"><g/></g></g><g fill="#5e17eb" fill-opacity="1"><g transform="translate(235.582112, 142.413059)"><g/></g></g><g fill="#5e17eb" fill-opacity="1"><g transform="translate(245.181911, 142.413059)"><g/></g></g><g fill="#5e17eb" fill-opacity="1"><g transform="translate(254.78171, 142.413059)"><g/></g></g><g fill="#5e17eb" fill-opacity="1"><g transform="translate(264.381508, 142.413059)"><g/></g></g><g fill="#5e17eb" fill-opacity="1"><g transform="translate(273.981307, 142.413059)"><g/></g></g><g fill="#5e17eb" fill-opacity="1"><g transform="translate(283.581106, 142.413059)"><g/></g></g><g fill="#5e17eb" fill-opacity="1"><g transform="translate(293.180905, 142.413059)"><g/></g></g><g clip-path="url(#43a83dacc4)"><g clip-path="url(#a8644e024a)"><g clip-path="url(#a418eae43d)"><path fill="#8c52ff" d="M 250.230469 130.566406 C 250.171875 128.117188 250.105469 125.410156 250.050781 122.960938 C 249.925781 117.769531 244.796875 113.46875 238.386719 113.621094 C 233.265625 113.742188 226.976562 113.890625 221.855469 114.011719 C 215.441406 114.160156 210.523438 118.699219 210.644531 123.890625 C 210.703125 126.34375 210.765625 129.050781 210.824219 131.5 C 210.949219 136.691406 216.074219 140.992188 222.488281 140.839844 C 226.121094 140.753906 230.34375 140.65625 234.320312 140.5625 C 235.347656 140.539062 236.164062 139.683594 236.140625 138.65625 C 236.117188 137.628906 235.261719 136.8125 234.234375 136.835938 C 230.257812 136.929688 226.035156 137.03125 222.398438 137.117188 C 218.234375 137.214844 214.628906 134.78125 214.550781 131.410156 C 214.550781 131.410156 214.371094 123.804688 214.371094 123.804688 C 214.289062 120.433594 217.777344 117.832031 221.941406 117.734375 C 227.0625 117.613281 233.351562 117.464844 238.472656 117.34375 C 242.640625 117.246094 246.246094 119.679688 246.324219 123.050781 C 246.324219 123.050781 246.503906 130.65625 246.503906 130.65625 C 246.527344 131.683594 247.382812 132.5 248.410156 132.472656 C 249.4375 132.449219 250.253906 131.59375 250.230469 130.566406 Z M 235.621094 123.300781 C 235.679688 125.75 235.742188 128.460938 235.800781 130.910156 C 235.921875 136.101562 241.050781 140.402344 247.460938 140.25 C 252.585938 140.128906 258.871094 139.980469 263.996094 139.859375 C 270.410156 139.710938 275.324219 135.167969 275.203125 129.976562 C 275.144531 127.527344 275.082031 124.820312 275.023438 122.371094 C 274.902344 117.179688 269.773438 112.878906 263.363281 113.027344 C 259.726562 113.113281 255.503906 113.214844 251.527344 113.308594 C 250.5 113.332031 249.683594 114.1875 249.710938 115.214844 C 249.730469 116.242188 250.585938 117.058594 251.617188 117.03125 C 255.589844 116.941406 259.816406 116.839844 263.449219 116.753906 C 267.613281 116.65625 271.21875 119.089844 271.300781 122.460938 C 271.300781 122.460938 271.480469 130.066406 271.480469 130.066406 C 271.558594 133.4375 268.070312 136.039062 263.90625 136.136719 C 258.785156 136.257812 252.496094 136.40625 247.375 136.527344 C 243.210938 136.625 239.605469 134.191406 239.523438 130.820312 C 239.523438 130.820312 239.34375 123.214844 239.34375 123.214844 C 239.320312 122.1875 238.464844 121.371094 237.4375 121.394531 C 236.410156 121.421875 235.597656 122.273438 235.621094 123.300781 Z M 235.621094 123.300781 " fill-opacity="1" fill-rule="evenodd"/></g></g></g><g fill="#5e17eb" fill-opacity="1"><g transform="translate(275.595962, 142.413059)"><g><path d="M 9.453125 0 L 5.1875 0 L 5.1875 -29.875 L 8.0625 -29.875 L 8.515625 -26.953125 L 8.78125 -26.953125 C 12.882812 -29.347656 16.441406 -30.546875 19.453125 -30.546875 C 22.160156 -30.546875 24.03125 -29.503906 25.0625 -27.421875 C 25.914062 -25.671875 26.34375 -23.15625 26.34375 -19.875 L 26.34375 0 L 22.03125 0 L 22.03125 -18.375 C 22.03125 -22.28125 21.78125 -24.609375 21.28125 -25.359375 C 20.78125 -26.117188 19.847656 -26.5 18.484375 -26.5 C 15.878906 -26.5 12.867188 -25.585938 9.453125 -23.765625 Z M 9.453125 0 "/></g></g></g><g clip-path="url(#3b2f7000dd)"><path fill="#5e17eb" d="M 171.347656 75.285156 C 171.777344 78.652344 173.152344 79.617188 173.152344 79.617188 C 170.796875 80.867188 171.160156 84.394531 171.855469 85.71875 C 172.292969 86.550781 172.894531 86.582031 172.894531 86.582031 C 170.761719 89.734375 173.292969 91.976562 173.292969 91.976562 C 172.742188 93.757812 172.585938 95.519531 172.808594 96.902344 L 204.363281 96.902344 C 204.546875 96.402344 204.746094 95.5 204.492188 93.90625 C 203.960938 90.59375 202.894531 89.25 202.664062 88.996094 C 202.664062 88.984375 204.679688 86.027344 204.492188 83.382812 C 204.195312 79.152344 203.089844 78.535156 203.089844 78.535156 C 205.214844 75.644531 203.78125 72.652344 202.960938 71.648438 C 202.945312 71.289062 204.09375 67.363281 203.28125 63.867188 C 203.011719 62.703125 202.40625 59.40625 202.28125 59.238281 C 202.410156 58.835938 203.164062 57.390625 201.964844 54.511719 C 201.464844 53.3125 200.757812 52.320312 200.277344 51.71875 C 200.070312 51.214844 199.929688 50.902344 199.929688 50.902344 C 201.953125 44.363281 200.824219 37.621094 199.71875 37.710938 C 197.625 37.878906 194.738281 45.621094 194.53125 46.136719 C 194.453125 46.339844 192.269531 46.503906 189.835938 46.675781 C 187.582031 46.503906 185.261719 46.378906 184.050781 46.574219 C 182.539062 46.8125 181.253906 47.265625 180.195312 47.753906 C 178.742188 47.960938 178.203125 48.003906 178.117188 47.832031 C 177.640625 46.867188 176.113281 40.109375 173.375 38.441406 C 171.910156 37.546875 170.050781 48.976562 173.699219 52.523438 C 173.699219 52.523438 173.964844 53.589844 174.109375 54.476562 C 173.0625 56.773438 174.03125 59.871094 174.03125 59.871094 C 169.699219 61.667969 173.539062 68.070312 173.539062 68.070312 C 172.578125 69.109375 170.722656 70.386719 171.347656 75.285156 " fill-opacity="1" fill-rule="nonzero"/></g><path fill="#ffffff" d="M 173.777344 41.066406 C 172.894531 39.527344 170.933594 46.84375 174.714844 50.421875 C 175.644531 51.296875 175.671875 49.796875 175.023438 45.46875 C 174.800781 43.984375 174.417969 42.183594 173.777344 41.066406 " fill-opacity="1" fill-rule="nonzero"/><path fill="#ffffff" d="M 198.847656 40.320312 C 199.816406 38.828125 201.375 46.242188 197.398438 49.605469 C 196.421875 50.429688 196.480469 48.929688 197.363281 44.644531 C 197.667969 43.171875 198.148438 41.398438 198.847656 40.320312 " fill-opacity="1" fill-rule="nonzero"/><path fill="#ffffff" d="M 197.871094 55.179688 C 195.433594 52.664062 188.152344 53.265625 188.152344 53.265625 C 188.152344 53.265625 180.898438 52.4375 178.382812 54.875 C 178.382812 54.875 170.40625 72.644531 187.847656 73.042969 C 205.289062 73.191406 197.871094 55.179688 197.871094 55.179688 " fill-opacity="1" fill-rule="nonzero"/><path fill="#ffffff" d="M 195.753906 60.613281 C 197.175781 60.613281 198.332031 61.414062 198.332031 62.402344 C 198.332031 63.390625 197.175781 64.191406 195.753906 64.191406 C 194.328125 64.191406 193.175781 63.390625 193.175781 62.402344 C 193.175781 61.414062 194.328125 60.613281 195.753906 60.613281 " fill-opacity="1" fill-rule="nonzero"/><path fill="#ffffff" d="M 180.695312 60.917969 C 182.117188 60.917969 183.273438 61.714844 183.273438 62.703125 C 183.273438 63.691406 182.117188 64.492188 180.695312 64.492188 C 179.269531 64.492188 178.117188 63.691406 178.117188 62.703125 C 178.117188 61.714844 179.269531 60.917969 180.695312 60.917969 " fill-opacity="1" fill-rule="nonzero"/><path fill="#231f20" d="M 193.515625 59.226562 C 193.507812 59.703125 193.121094 60.082031 192.644531 60.074219 C 192.171875 60.066406 191.792969 59.675781 191.800781 59.203125 C 191.808594 58.726562 192.207031 57.988281 192.679688 57.996094 C 193.15625 58.003906 193.523438 58.753906 193.515625 59.226562 " fill-opacity="1" fill-rule="nonzero"/><path fill="#231f20" d="M 184.25 59.429688 C 184.242188 59.902344 183.855469 60.28125 183.378906 60.273438 C 182.90625 60.265625 182.527344 59.878906 182.535156 59.402344 C 182.542969 58.929688 182.9375 58.191406 183.410156 58.199219 C 183.886719 58.207031 184.257812 58.957031 184.25 59.429688 " fill-opacity="1" fill-rule="nonzero"/><path fill="#ffffff" d="M 195.496094 66.703125 C 195.53125 64.488281 192.121094 61.875 188.480469 61.820312 C 184.839844 61.761719 181.558594 64.199219 181.523438 66.417969 C 181.503906 67.601562 182.574219 68.191406 183.820312 69.050781 C 185.089844 69.925781 186.417969 71.890625 188.425781 71.921875 C 190.445312 71.953125 191.832031 70.015625 193.132812 69.179688 C 194.390625 68.375 195.480469 67.851562 195.496094 66.703125 " fill-opacity="1" fill-rule="nonzero"/><path fill="#5e17eb" d="M 199.179688 50.65625 C 199.097656 49.898438 198.496094 49.25 197.75 49.28125 C 198.140625 48.65625 198.394531 47.238281 197.085938 46.605469 C 196.28125 46.214844 195.328125 46.925781 195.328125 46.925781 C 195.328125 46.925781 195.175781 45.296875 193.417969 44.980469 C 191.550781 44.648438 190.546875 46.484375 190.546875 46.484375 C 190.566406 45.023438 188.074219 44.152344 186.691406 44.394531 C 184.992188 44.691406 184.183594 45.925781 184.183594 45.925781 C 180.835938 43.882812 179.570312 47.078125 179.570312 47.078125 C 178.832031 45.277344 176.164062 45.832031 175.332031 46.921875 C 174.265625 48.320312 175.519531 49.5 175.519531 49.5 C 175.519531 49.5 173.21875 51.066406 174.226562 52.882812 C 175.367188 54.929688 177.542969 53.667969 177.542969 53.667969 C 178.40625 58.011719 181.792969 54.226562 181.792969 54.226562 C 182.035156 56.25 182.925781 57.996094 185.476562 57.410156 C 187.234375 57.007812 187.78125 54.703125 187.78125 54.703125 C 188.394531 57.070312 190.230469 56.734375 190.929688 56.050781 C 191.371094 55.621094 191.394531 55.019531 191.394531 55.019531 C 193 57.175781 194.199219 54.664062 194.199219 54.664062 C 195.613281 55.535156 197.011719 55.472656 197.726562 54.523438 C 198.132812 53.984375 198.246094 53.382812 198.039062 52.386719 C 198.628906 52.21875 199.296875 51.722656 199.179688 50.65625 " fill-opacity="1" fill-rule="nonzero"/><path fill="#ffffff" d="M 176.222656 50.105469 C 176.144531 50.128906 176.066406 50.160156 176.015625 50.191406 C 175.957031 50.226562 175.90625 50.265625 175.871094 50.316406 C 175.835938 50.363281 175.804688 50.414062 175.789062 50.46875 C 175.769531 50.523438 175.761719 50.585938 175.753906 50.644531 C 175.75 50.769531 175.757812 50.898438 175.792969 51.023438 C 175.808594 51.085938 175.824219 51.148438 175.847656 51.214844 C 175.871094 51.273438 175.898438 51.332031 175.925781 51.390625 C 176.042969 51.621094 176.179688 51.839844 176.390625 51.972656 C 176.445312 52 176.503906 52.023438 176.566406 52.039062 C 176.628906 52.050781 176.695312 52.054688 176.765625 52.046875 C 176.832031 52.03125 176.902344 52.019531 176.964844 51.988281 C 177.035156 51.964844 177.09375 51.921875 177.15625 51.882812 L 177.316406 51.785156 L 177.289062 51.972656 C 177.273438 52.085938 177.253906 52.191406 177.242188 52.304688 C 177.238281 52.414062 177.257812 52.523438 177.261719 52.628906 C 177.285156 52.734375 177.320312 52.835938 177.351562 52.9375 C 177.402344 53.03125 177.441406 53.125 177.496094 53.207031 C 177.5625 53.285156 177.605469 53.371094 177.679688 53.433594 C 177.714844 53.46875 177.746094 53.503906 177.777344 53.539062 C 177.816406 53.566406 177.859375 53.59375 177.894531 53.621094 C 177.96875 53.683594 178.058594 53.71875 178.144531 53.761719 C 178.226562 53.808594 178.328125 53.816406 178.414062 53.851562 C 178.507812 53.875 178.609375 53.878906 178.703125 53.902344 C 178.800781 53.90625 178.902344 53.910156 179 53.917969 C 179.101562 53.914062 179.203125 53.90625 179.308594 53.902344 L 179.617188 53.851562 C 179.726562 53.835938 179.828125 53.800781 179.933594 53.777344 C 180.042969 53.757812 180.140625 53.710938 180.246094 53.675781 C 180.351562 53.640625 180.460938 53.609375 180.5625 53.558594 C 180.667969 53.515625 180.777344 53.472656 180.890625 53.433594 L 180.921875 53.476562 C 180.847656 53.566406 180.765625 53.652344 180.679688 53.738281 C 180.597656 53.828125 180.5 53.894531 180.402344 53.96875 C 180.304688 54.039062 180.207031 54.113281 180.097656 54.167969 C 179.988281 54.222656 179.882812 54.289062 179.765625 54.332031 C 179.648438 54.375 179.53125 54.414062 179.410156 54.449219 C 179.285156 54.476562 179.15625 54.496094 179.03125 54.515625 C 178.902344 54.519531 178.769531 54.519531 178.640625 54.515625 C 178.511719 54.492188 178.378906 54.476562 178.25 54.4375 C 178.128906 54.386719 177.996094 54.355469 177.882812 54.28125 C 177.765625 54.210938 177.652344 54.144531 177.554688 54.046875 C 177.503906 54 177.453125 53.957031 177.40625 53.90625 L 177.285156 53.746094 C 177.199219 53.644531 177.15625 53.511719 177.101562 53.394531 C 177.054688 53.273438 177.039062 53.140625 177.011719 53.019531 C 177.007812 52.890625 177 52.765625 177.003906 52.644531 C 177.023438 52.519531 177.03125 52.402344 177.046875 52.28125 C 177.078125 52.164062 177.097656 52.046875 177.121094 51.933594 L 177.257812 52.023438 C 177.121094 52.113281 176.980469 52.203125 176.816406 52.261719 C 176.734375 52.289062 176.648438 52.308594 176.558594 52.316406 C 176.464844 52.324219 176.371094 52.320312 176.277344 52.300781 C 176.09375 52.265625 175.917969 52.171875 175.78125 52.050781 C 175.714844 51.988281 175.652344 51.917969 175.597656 51.847656 C 175.542969 51.773438 175.5 51.695312 175.460938 51.613281 C 175.386719 51.449219 175.339844 51.28125 175.316406 51.101562 C 175.308594 51.011719 175.308594 50.921875 175.3125 50.832031 C 175.316406 50.742188 175.335938 50.648438 175.363281 50.558594 C 175.394531 50.472656 175.429688 50.382812 175.488281 50.304688 C 175.542969 50.222656 175.621094 50.15625 175.703125 50.105469 C 175.785156 50.054688 175.878906 50.03125 175.96875 50.019531 C 176.015625 50.019531 176.058594 50.019531 176.101562 50.023438 L 176.21875 50.050781 L 176.222656 50.105469 " fill-opacity="1" fill-rule="nonzero"/><path fill="#ffffff" d="M 187.386719 47.394531 L 187.316406 47.300781 C 187.292969 47.261719 187.277344 47.21875 187.257812 47.179688 C 187.230469 47.09375 187.214844 47 187.222656 46.902344 C 187.234375 46.804688 187.265625 46.710938 187.316406 46.625 C 187.363281 46.539062 187.429688 46.46875 187.5 46.40625 C 187.566406 46.34375 187.644531 46.289062 187.722656 46.246094 C 187.804688 46.203125 187.886719 46.167969 187.972656 46.136719 C 188.140625 46.082031 188.316406 46.058594 188.496094 46.054688 C 188.585938 46.058594 188.675781 46.066406 188.765625 46.082031 C 188.851562 46.101562 188.941406 46.132812 189.027344 46.167969 C 189.195312 46.242188 189.351562 46.363281 189.460938 46.515625 C 189.519531 46.59375 189.558594 46.679688 189.589844 46.761719 C 189.621094 46.851562 189.636719 46.9375 189.648438 47.023438 C 189.664062 47.195312 189.640625 47.359375 189.613281 47.519531 L 189.476562 47.4375 C 189.570312 47.367188 189.667969 47.300781 189.761719 47.222656 C 189.863281 47.160156 189.96875 47.101562 190.074219 47.035156 C 190.183594 46.980469 190.300781 46.933594 190.417969 46.886719 C 190.542969 46.859375 190.667969 46.816406 190.796875 46.808594 C 190.929688 46.8125 191.066406 46.796875 191.195312 46.832031 L 191.390625 46.875 C 191.453125 46.898438 191.515625 46.925781 191.578125 46.953125 C 191.707031 47 191.816406 47.078125 191.925781 47.15625 C 192.042969 47.230469 192.125 47.335938 192.226562 47.425781 C 192.3125 47.527344 192.382812 47.636719 192.457031 47.746094 C 192.515625 47.863281 192.566406 47.984375 192.617188 48.101562 C 192.652344 48.226562 192.6875 48.347656 192.714844 48.472656 C 192.730469 48.597656 192.746094 48.722656 192.753906 48.847656 C 192.761719 48.972656 192.75 49.09375 192.746094 49.21875 C 192.742188 49.339844 192.710938 49.460938 192.6875 49.578125 C 192.664062 49.695312 192.640625 49.8125 192.59375 49.925781 C 192.550781 50.039062 192.507812 50.148438 192.457031 50.253906 L 192.402344 50.242188 C 192.390625 50.125 192.386719 50.007812 192.382812 49.894531 C 192.382812 49.78125 192.371094 49.667969 192.359375 49.558594 C 192.347656 49.445312 192.347656 49.335938 192.320312 49.230469 C 192.296875 49.121094 192.289062 49.015625 192.257812 48.914062 L 192.175781 48.609375 C 192.132812 48.511719 192.097656 48.417969 192.0625 48.324219 C 192.015625 48.234375 191.96875 48.144531 191.925781 48.058594 C 191.863281 47.980469 191.816406 47.894531 191.757812 47.816406 C 191.691406 47.75 191.640625 47.664062 191.5625 47.609375 C 191.488281 47.550781 191.417969 47.480469 191.332031 47.441406 C 191.292969 47.417969 191.25 47.390625 191.207031 47.367188 L 191.074219 47.320312 C 190.984375 47.277344 190.886719 47.277344 190.789062 47.25 C 190.691406 47.230469 190.589844 47.238281 190.484375 47.226562 C 190.382812 47.242188 190.273438 47.253906 190.167969 47.277344 C 190.070312 47.3125 189.960938 47.34375 189.863281 47.394531 C 189.765625 47.449219 189.675781 47.511719 189.582031 47.570312 L 189.421875 47.675781 L 189.445312 47.488281 C 189.453125 47.414062 189.46875 47.34375 189.460938 47.273438 C 189.464844 47.199219 189.445312 47.132812 189.429688 47.066406 C 189.410156 47 189.378906 46.941406 189.34375 46.886719 C 189.304688 46.835938 189.257812 46.792969 189.207031 46.757812 C 189 46.617188 188.746094 46.585938 188.488281 46.574219 C 188.421875 46.570312 188.359375 46.570312 188.292969 46.574219 C 188.226562 46.582031 188.160156 46.589844 188.097656 46.601562 C 187.96875 46.625 187.847656 46.671875 187.738281 46.726562 C 187.683594 46.757812 187.632812 46.789062 187.59375 46.828125 C 187.546875 46.867188 187.511719 46.914062 187.484375 46.96875 C 187.457031 47.019531 187.441406 47.082031 187.433594 47.152344 C 187.425781 47.210938 187.429688 47.292969 187.441406 47.375 L 187.386719 47.394531 " fill-opacity="1" fill-rule="nonzero"/><path fill="#ffffff" d="M 194.964844 53.390625 C 194.964844 53.390625 195.019531 53.402344 195.117188 53.429688 C 195.167969 53.445312 195.226562 53.449219 195.289062 53.449219 C 195.320312 53.449219 195.355469 53.453125 195.390625 53.453125 C 195.425781 53.449219 195.464844 53.441406 195.503906 53.4375 C 195.582031 53.429688 195.667969 53.402344 195.75 53.375 C 195.835938 53.347656 195.921875 53.300781 196.007812 53.257812 C 196.089844 53.203125 196.179688 53.152344 196.257812 53.085938 C 196.339844 53.027344 196.410156 52.949219 196.480469 52.878906 C 196.546875 52.796875 196.613281 52.71875 196.65625 52.628906 C 196.679688 52.585938 196.699219 52.542969 196.722656 52.503906 C 196.738281 52.460938 196.761719 52.421875 196.78125 52.382812 C 196.824219 52.304688 196.851562 52.230469 196.890625 52.160156 C 196.910156 52.089844 196.953125 52.019531 196.964844 51.953125 C 196.972656 51.921875 196.980469 51.886719 196.992188 51.855469 C 197 51.824219 197 51.792969 197.003906 51.761719 C 197.015625 51.699219 197.023438 51.640625 197.019531 51.59375 C 197.015625 51.496094 197.019531 51.429688 197.019531 51.429688 L 197.066406 51.398438 C 197.066406 51.398438 197.121094 51.429688 197.207031 51.511719 C 197.253906 51.550781 197.292969 51.613281 197.332031 51.6875 C 197.378906 51.761719 197.410156 51.851562 197.421875 51.957031 C 197.449219 52.066406 197.4375 52.179688 197.429688 52.300781 C 197.40625 52.417969 197.375 52.542969 197.3125 52.652344 C 197.28125 52.707031 197.246094 52.765625 197.210938 52.816406 C 197.167969 52.867188 197.125 52.914062 197.082031 52.960938 C 196.992188 53.054688 196.890625 53.136719 196.792969 53.214844 C 196.6875 53.292969 196.585938 53.367188 196.476562 53.421875 C 196.371094 53.488281 196.25 53.523438 196.140625 53.566406 C 196.027344 53.597656 195.917969 53.632812 195.808594 53.636719 C 195.703125 53.648438 195.601562 53.65625 195.507812 53.640625 C 195.460938 53.636719 195.417969 53.632812 195.375 53.625 C 195.335938 53.617188 195.292969 53.601562 195.257812 53.59375 C 195.179688 53.574219 195.121094 53.550781 195.082031 53.523438 C 194.992188 53.472656 194.941406 53.441406 194.941406 53.441406 L 194.964844 53.390625 " fill-opacity="1" fill-rule="nonzero"/><path fill="#ffffff" d="M 180.949219 49.316406 C 180.949219 49.316406 180.929688 49.261719 180.898438 49.164062 C 180.878906 49.117188 180.871094 49.058594 180.863281 48.996094 C 180.859375 48.964844 180.855469 48.933594 180.851562 48.898438 C 180.855469 48.859375 180.855469 48.820312 180.859375 48.78125 C 180.855469 48.703125 180.878906 48.617188 180.898438 48.53125 C 180.917969 48.441406 180.960938 48.355469 180.996094 48.265625 C 181.042969 48.175781 181.082031 48.085938 181.144531 48.003906 C 181.199219 47.914062 181.265625 47.839844 181.332031 47.761719 C 181.40625 47.691406 181.480469 47.617188 181.566406 47.566406 C 181.605469 47.542969 181.648438 47.515625 181.683594 47.488281 C 181.726562 47.46875 181.765625 47.445312 181.800781 47.421875 C 181.875 47.371094 181.949219 47.339844 182.015625 47.296875 C 182.082031 47.269531 182.148438 47.21875 182.214844 47.203125 C 182.246094 47.195312 182.277344 47.179688 182.308594 47.164062 C 182.339844 47.15625 182.371094 47.15625 182.402344 47.144531 C 182.460938 47.132812 182.519531 47.117188 182.566406 47.117188 C 182.664062 47.113281 182.734375 47.105469 182.734375 47.105469 L 182.761719 47.054688 C 182.761719 47.054688 182.722656 47.003906 182.632812 46.921875 C 182.589844 46.878906 182.527344 46.84375 182.449219 46.8125 C 182.371094 46.773438 182.277344 46.75 182.171875 46.746094 C 182.0625 46.726562 181.949219 46.75 181.828125 46.769531 C 181.714844 46.800781 181.589844 46.84375 181.488281 46.914062 C 181.4375 46.949219 181.382812 46.988281 181.332031 47.03125 C 181.285156 47.074219 181.246094 47.125 181.199219 47.171875 C 181.113281 47.265625 181.042969 47.375 180.96875 47.480469 C 180.902344 47.589844 180.835938 47.695312 180.792969 47.8125 C 180.734375 47.921875 180.707031 48.046875 180.675781 48.15625 C 180.65625 48.273438 180.628906 48.386719 180.632812 48.492188 C 180.632812 48.601562 180.632812 48.703125 180.65625 48.796875 C 180.664062 48.839844 180.671875 48.882812 180.679688 48.925781 C 180.695312 48.964844 180.710938 49.003906 180.722656 49.042969 C 180.75 49.113281 180.773438 49.171875 180.808594 49.210938 C 180.867188 49.292969 180.898438 49.34375 180.898438 49.34375 L 180.949219 49.316406 " fill-opacity="1" fill-rule="nonzero"/><path fill="#231f20" d="M 188.601562 63.402344 C 187.382812 63.390625 185.050781 63.417969 185.476562 64.347656 C 185.714844 64.863281 186.96875 65.546875 188.582031 65.585938 C 190.191406 65.578125 191.460938 64.921875 191.707031 64.410156 C 192.152344 63.488281 189.820312 63.414062 188.601562 63.402344 " fill-opacity="1" fill-rule="nonzero"/><path fill="#231f20" d="M 189.039062 65.359375 C 189.167969 66.417969 188.886719 67.421875 187.949219 68.003906 C 186.914062 68.648438 185.558594 68.234375 184.585938 67.703125 C 184.222656 67.503906 184.546875 66.953125 184.90625 67.152344 C 185.683594 67.578125 186.53125 67.835938 187.402344 67.558594 C 188.34375 67.261719 188.503906 66.203125 188.402344 65.359375 C 188.351562 64.953125 188.988281 64.957031 189.039062 65.359375 " fill-opacity="1" fill-rule="nonzero"/><path fill="#231f20" d="M 189.195312 65.578125 C 189.175781 66.308594 189.480469 67 190.082031 67.429688 C 190.972656 68.074219 191.878906 67.351562 192.433594 66.644531 C 192.6875 66.320312 193.136719 66.777344 192.882812 67.09375 C 192.214844 67.949219 191.136719 68.679688 190.035156 68.132812 C 189.078125 67.660156 188.53125 66.632812 188.558594 65.578125 C 188.570312 65.167969 189.207031 65.167969 189.195312 65.578125 " fill-opacity="1" fill-rule="nonzero"/><g clip-path="url(#63abd86b9b)"><path fill="#5e17eb" d="M 156.671875 98.371094 C 153.527344 97.996094 149.894531 99.230469 147.011719 97.492188 C 144.203125 95.800781 144.488281 91.804688 144.617188 88.988281 C 144.910156 82.625 146.441406 75 142.050781 69.582031 C 141.011719 68.296875 139.691406 67.253906 138.214844 66.601562 C 139.167969 66.097656 140.046875 65.4375 140.808594 64.679688 C 143.050781 62.457031 144.277344 59.457031 144.757812 56.371094 C 145.304688 52.890625 144.957031 49.382812 144.699219 45.890625 C 144.566406 44.09375 144.460938 42.289062 144.539062 40.488281 C 144.597656 39.1875 144.753906 37.628906 145.660156 36.609375 C 146.71875 35.429688 148.515625 35.132812 150.019531 35.097656 C 152.042969 35.050781 154.039062 35.367188 156.0625 35.125 C 156.855469 35.03125 157.535156 33.0625 156.425781 33.195312 C 153.257812 33.574219 149.996094 32.519531 146.96875 33.910156 C 144.054688 35.246094 143.121094 38.386719 142.988281 41.351562 C 142.828125 44.964844 143.402344 48.5625 143.496094 52.171875 C 143.578125 55.355469 143.296875 58.75 141.636719 61.546875 C 140.039062 64.246094 136.953125 66.078125 133.78125 65.632812 C 133.097656 65.539062 132.375 66.878906 132.710938 67.402344 C 132.726562 67.703125 132.894531 67.914062 133.285156 67.863281 C 136.152344 67.464844 138.953125 69.023438 140.71875 71.203125 C 142.761719 73.726562 143.4375 77.046875 143.546875 80.21875 C 143.671875 83.761719 143.121094 87.285156 143.03125 90.820312 C 142.960938 93.6875 143.007812 97.253906 145.578125 99.113281 C 148.578125 101.289062 152.550781 99.929688 155.929688 100.332031 C 156.757812 100.433594 157.625 98.484375 156.671875 98.371094 Z M 156.671875 98.371094 " fill-opacity="1" fill-rule="nonzero"/></g><g clip-path="url(#c22e82e4e8)"><path fill="#5e17eb" d="M 218.066406 98.363281 C 221.210938 97.988281 224.839844 99.222656 227.722656 97.484375 C 230.527344 95.796875 230.242188 91.800781 230.113281 88.984375 C 229.824219 82.625 228.292969 75.003906 232.679688 69.585938 C 233.71875 68.300781 235.039062 67.257812 236.511719 66.605469 C 235.5625 66.101562 234.683594 65.445312 233.921875 64.6875 C 231.683594 62.464844 230.457031 59.464844 229.972656 56.378906 C 229.429688 52.898438 229.773438 49.390625 230.03125 45.90625 C 230.164062 44.109375 230.269531 42.304688 230.191406 40.503906 C 230.132812 39.199219 229.980469 37.644531 229.070312 36.625 C 228.015625 35.445312 226.21875 35.148438 224.714844 35.113281 C 222.691406 35.066406 220.695312 35.382812 218.675781 35.140625 C 217.878906 35.046875 217.203125 33.078125 218.3125 33.210938 C 221.480469 33.589844 224.738281 32.535156 227.765625 33.925781 C 230.679688 35.261719 231.609375 38.402344 231.742188 41.363281 C 231.902344 44.976562 231.328125 48.574219 231.234375 52.179688 C 231.152344 55.363281 231.433594 58.757812 233.09375 61.554688 C 234.691406 64.253906 237.777344 66.082031 240.945312 65.640625 C 241.632812 65.542969 242.351562 66.882812 242.019531 67.40625 C 242 67.707031 241.832031 67.921875 241.441406 67.867188 C 238.578125 67.46875 235.777344 69.027344 234.011719 71.207031 C 231.972656 73.726562 231.292969 77.050781 231.183594 80.21875 C 231.0625 83.761719 231.609375 87.28125 231.699219 90.816406 C 231.769531 93.683594 231.722656 97.25 229.15625 99.109375 C 226.15625 101.28125 222.183594 99.921875 218.808594 100.324219 C 217.980469 100.425781 217.113281 98.476562 218.066406 98.363281 Z M 218.066406 98.363281 " fill-opacity="1" fill-rule="nonzero"/></g></svg>